HIERARCHY
ROOT ROOT
{
	OFFSET 0.000000 56.020000 -5.659234
	CHANNELS 6 Xposition Yposition Zposition Xrotation Yrotation Zrotation 
	JOINT C_spine0001_bind_JNT
	{
		OFFSET 0.000000 1.618999 0.000000
		CHANNELS 3 Xrotation Yrotation Zrotation
		JOINT C_spine0002_bind_JNT
		{
			OFFSET 0.000000 4.942001 0.000001
			CHANNELS 3 Xrotation Yrotation Zrotation
			JOINT C_spine0003_bind_JNT
			{
				OFFSET 0.000000 4.942001 -0.000000
				CHANNELS 3 Xrotation Yrotation Zrotation
				JOINT C_neck0001_bind_JNT
				{
					OFFSET 0.000000 17.026009 -0.000000
					CHANNELS 3 Xrotation Yrotation Zrotation
					JOINT C_neck0002_bind_JNT
					{
						OFFSET 0.000000 3.249985 0.000000
						CHANNELS 3 Xrotation Yrotation Zrotation
						JOINT C_head_bind_JNT
						{
							OFFSET 0.000000 5.278008 0.000000
							CHANNELS 3 Xrotation Yrotation Zrotation
							End Site
							{
								OFFSET 0.000000 0.000000 0.000000
							}
						}
					}
				}
				JOINT L_clavicle_bind_JNT
				{
					OFFSET 4.590000 12.067001 0.834000
					CHANNELS 3 Xrotation Yrotation Zrotation
					JOINT L_armUpper0001_bind_JNT
					{
						OFFSET 7.812635 0.512001 -3.452945
						CHANNELS 3 Xrotation Yrotation Zrotation
						JOINT L_armLower0001_bind_JNT
						{
							OFFSET 15.265892 -6.552116 -0.058157
							CHANNELS 3 Xrotation Yrotation Zrotation
							JOINT L_hand0001_bind_JNT
							{
								OFFSET 14.747667 -6.369995 5.049225
								CHANNELS 3 Xrotation Yrotation Zrotation
								End Site
								{
									OFFSET 0.000000 0.000000 0.000000
								}
							}
						}
					}
				}
				JOINT R_clavicle_bind_JNT
				{
					OFFSET -4.590000 12.067001 0.834000
					CHANNELS 3 Xrotation Yrotation Zrotation
					JOINT R_armUpper0001_bind_JNT
					{
						OFFSET -7.812635 0.512001 -3.452945
						CHANNELS 3 Xrotation Yrotation Zrotation
						JOINT R_armLower0001_bind_JNT
						{
							OFFSET -15.265890 -6.552124 -0.058160
							CHANNELS 3 Xrotation Yrotation Zrotation
							JOINT R_hand0001_bind_JNT
							{
								OFFSET -14.746784 -6.369629 5.048937
								CHANNELS 3 Xrotation Yrotation Zrotation
								End Site
								{
									OFFSET 0.000000 0.000000 0.000000
								}
							}
						}
					}
				}
			}
		}
	}
	JOINT C_pelvis0001_bind_JNT
	{
		OFFSET -0.000000 0.000000 0.000000
		CHANNELS 3 Xrotation Yrotation Zrotation
		JOINT L_legUpper0001_bind_JNT
		{
			OFFSET 6.599999 -6.027000 0.539000
			CHANNELS 3 Xrotation Yrotation Zrotation
			JOINT L_legLower0001_bind_JNT
			{
				OFFSET -0.140713 -19.187443 0.040261
				CHANNELS 3 Xrotation Yrotation Zrotation
				JOINT L_foot0001_bind_JNT
				{
					OFFSET -0.132215 -18.028637 -1.138370
					CHANNELS 3 Xrotation Yrotation Zrotation
					JOINT L_foot0002_bind_JNT
					{
						OFFSET 0.007014 -4.693133 9.886524
						CHANNELS 3 Xrotation Yrotation Zrotation
						End Site
						{
							OFFSET 0.000000 0.000000 0.000000
						}
					}
				}
			}
		}
		JOINT R_legUpper0001_bind_JNT
		{
			OFFSET -6.599999 -6.027000 0.539000
			CHANNELS 3 Xrotation Yrotation Zrotation
			JOINT R_legLower0001_bind_JNT
			{
				OFFSET 0.140710 -19.187164 0.040550
				CHANNELS 3 Xrotation Yrotation Zrotation
				JOINT R_foot0001_bind_JNT
				{
					OFFSET 0.132215 -18.028633 -1.138362
					CHANNELS 3 Xrotation Yrotation Zrotation
					JOINT R_foot0002_bind_JNT
					{
						OFFSET -0.007014 -4.693128 9.886505
						CHANNELS 3 Xrotation Yrotation Zrotation
						End Site
						{
							OFFSET 0.000000 0.000000 0.000000
						}
					}
				}
			}
		}
	}
}
MOTION
Frames: 8
Frame Time: 0.033333
-4.250113 47.716694 31.640409 0.007454 -0.911788 -0.014471 -6.726371 -5.646350 -1.601291 7.006073 6.758028 2.180623 2.865120 6.185372 1.511672 -6.193966 -0.107861 -0.579407 3.374905 -6.049817 -0.844026 26.627415 0.543815 1.511502 0.358865 13.098553 -5.905779 21.719891 24.071606 -52.502377 16.897429 6.019101 -7.720756 -39.006004 -29.028141 -59.867416 -2.381491 -9.542696 -0.011655 -18.401569 10.027916 57.433891 -3.431316 5.272264 19.262720 -16.736053 31.897907 7.032965 -5.050827 -5.639441 -0.773353 -21.494091 -1.179316 -0.979549 16.157169 2.447797 0.308916 -2.198953 0.093924 -5.090875 -1.805308 -1.406091 -0.940926 17.210844 1.820981 15.703246 -2.303535 2.216773 -2.256811 -5.542977 -0.261431 -10.626548 -2.489334 0.002913 -0.872095 
-4.367097 47.521858 32.699932 0.008062 -1.053890 -0.015103 -6.768642 -5.812490 -1.418126 7.003701 7.073011 1.905022 2.939160 6.376007 1.338407 -6.251756 -0.189697 -0.402885 3.523103 -6.052286 -0.842156 26.314886 0.548847 1.439257 0.389626 13.077442 -5.910040 22.082479 24.618608 -52.259964 16.989786 5.847841 -8.032391 -39.646114 -29.062878 -60.573372 -2.470053 -9.643756 -0.123043 -18.553484 10.264828 57.361919 -3.843686 5.673775 19.669971 -16.118923 31.837536 6.549557 -5.062620 -5.958589 -0.570618 -21.108255 -0.943443 -1.385755 10.348399 3.301370 0.353716 -1.735344 -0.366589 -6.661188 -1.247246 -1.205413 -1.099872 18.510696 2.482430 15.305688 -2.132696 2.220741 -2.272674 -6.138663 -0.105301 -10.390141 -3.115830 0.030365 -1.219399 
-4.453609 47.317814 33.685692 0.002959 -1.184162 -0.020513 -6.932710 -5.866869 -1.488468 7.042665 7.170222 1.712907 3.123513 6.473243 1.393721 -6.414278 -0.214577 -0.441094 3.345949 -6.123661 -0.934381 26.482939 0.720257 1.287458 0.352530 13.033937 -6.204255 22.542311 25.116779 -52.070843 16.890285 5.516740 -8.097509 -40.319870 -29.255880 -61.276466 -2.725135 -9.696036 -0.188580 -18.366306 10.092957 57.359562 -3.721946 6.314900 19.735262 -15.671585 31.985676 5.912803 -5.029733 -6.163264 -0.706124 -20.819969 -0.617191 -1.735384 6.793801 3.813425 0.798246 -1.392228 -0.882325 -7.188581 -0.621647 -1.057780 -1.228426 19.652559 2.960771 15.229451 -2.191253 2.367383 -2.289547 -6.647164 -0.082599 -10.422091 -3.713572 0.146084 -1.219650 
-4.569964 47.141445 34.603340 0.011626 -1.288453 -0.013141 -6.899474 -6.149078 -1.281320 6.986138 7.266277 1.529686 3.155737 6.545105 1.122779 -6.575674 -0.137684 -0.441910 3.428959 -5.904977 -0.892654 26.093939 0.761486 1.330047 0.281030 13.202684 -6.219985 22.891539 25.667879 -51.838482 17.020384 4.932612 -8.617665 -40.888229 -29.449753 -61.617668 -2.540700 -9.801562 -0.117753 -18.427639 10.109594 57.330570 -3.603466 6.442218 20.028522 -15.123778 32.217770 5.411070 -4.944101 -6.486006 -0.499907 -20.931902 -0.633839 -2.402653 5.118122 4.529241 0.879670 -1.152764 -0.995067 -7.148791 -0.620853 -0.868384 -1.134887 20.828289 3.291011 14.798685 -2.391571 2.204378 -2.178756 -6.798759 0.314738 -10.293656 -4.408978 0.244887 -1.528285 
-4.671091 46.964287 35.512753 0.002589 -1.376079 -0.013434 -6.875096 -6.367754 -1.087237 6.925721 7.304233 1.243515 3.079708 6.632563 1.081863 -6.660767 -0.229066 -0.563814 3.565864 -5.714549 -0.842879 26.099669 0.843771 1.299172 0.168768 13.215187 -6.271786 23.355516 25.996498 -51.705708 17.063105 4.588938 -8.981271 -41.179035 -29.313009 -61.799622 -2.461309 -9.991713 -0.110907 -18.217073 9.939832 57.430065 -3.138591 6.486894 19.951136 -15.121763 32.290752 5.053766 -4.825401 -6.823372 -0.545161 -20.533449 -0.463027 -2.714894 4.465521 4.859943 1.114650 -1.190636 -1.057576 -6.739022 -0.823567 -0.912513 -0.864855 21.928698 3.794055 14.650381 -2.898804 2.198149 -2.171156 -7.021728 0.442616 -10.186082 -4.711659 0.133227 -1.530938 
-4.733313 46.787876 36.529541 0.009921 -1.568696 -0.013935 -6.571548 -6.509559 -0.811936 6.674261 7.301286 1.017277 2.957678 6.655449 0.890291 -6.741498 -0.211627 -0.690389 3.646345 -5.422163 -0.807499 25.845591 0.842361 1.440385 0.216101 13.272305 -6.420772 23.591412 26.354200 -51.499554 16.953297 4.131044 -9.421489 -41.280796 -29.372768 -62.006817 -2.394890 -9.820955 -0.033743 -17.923805 9.465490 57.361851 -2.515936 6.373806 19.934374 -15.223949 32.430344 4.917865 -4.494939 -6.899555 -0.408380 -20.339876 -0.415167 -3.147583 4.047904 5.175606 1.208148 -0.521772 -1.600362 -5.845507 -0.753737 -0.763398 -0.767228 23.309402 4.102697 14.248925 -3.595063 2.015003 -2.144276 -7.114213 0.680713 -9.883722 -5.405814 0.246368 -1.803485 
-4.734907 46.662949 37.498257 0.003811 -1.812872 -0.015745 -6.369022 -6.562229 -0.582524 6.575801 7.266375 0.704170 2.865569 6.588418 0.793522 -6.800455 -0.162420 -0.901129 3.616897 -5.111331 -0.698722 25.822050 0.923789 1.570119 0.214915 13.473132 -6.364463 23.645952 26.345873 -51.593292 17.066273 3.810387 -9.641799 -41.315784 -29.470127 -61.970585 -2.285173 -9.752422 0.008037 -17.579914 9.144653 57.554790 -1.700030 6.428411 19.709024 -15.377542 32.535660 4.715448 -4.252795 -7.008093 -0.330387 -19.853041 -0.188552 -3.246294 4.045061 4.744740 1.492183 -0.128245 -1.700446 -5.387766 -0.731816 -0.553275 -0.661334 24.421164 4.591651 13.875257 -4.390120 1.843930 -1.983197 -7.098164 0.818716 -9.825944 -5.898191 0.291986 -1.740017 
-4.593421 46.578468 38.604168 0.012304 -1.750990 -0.010913 -6.015580 -6.978960 -0.419998 6.295600 7.287426 0.325840 2.647879 6.604244 0.661246 -6.776755 -0.075395 -0.967912 3.658531 -4.798687 -0.668250 25.713137 1.037616 1.769247 0.315030 13.464838 -6.271400 23.709757 26.255733 -51.744652 17.072769 3.472991 -9.841971 -41.255554 -29.739319 -61.725018 -2.175470 -9.626601 -0.013451 -16.926363 8.521400 57.712402 -0.957875 6.677677 19.591238 -15.675563 32.638611 4.849036 -3.893089 -7.324883 -0.227062 -19.125484 -0.089949 -3.666132 4.249702 4.502272 1.656879 0.443913 -1.600790 -4.449289 -0.609918 -0.510236 -0.754643 25.921505 4.990580 13.151703 -5.307084 1.838755 -2.070777 -6.925234 0.702136 -9.068540 -6.805085 0.250969 -1.998490 
